<svg width="250" height="250" viewBox="0 0 250 250" fill="none" xmlns="http://www.w3.org/2000/svg">
<circle cx="125" cy="125" r="125" fill="#C4A484"/>
<circle cx="125" cy="125" r="98" fill="#C1E1C1"/>
<path d="M128.639 151V104.455H138.48V124.977H139.094L155.844 104.455H167.639L150.366 125.295L167.844 151H156.071L143.321 131.864L138.48 137.773V151H128.639Z" fill="white"/>
<path d="M86.3267 151V104.455H104.963C108.387 104.455 111.243 104.962 113.531 105.977C115.819 106.992 117.539 108.402 118.69 110.205C119.842 111.992 120.418 114.053 120.418 116.386C120.418 118.205 120.054 119.803 119.327 121.182C118.599 122.545 117.599 123.667 116.327 124.545C115.069 125.409 113.63 126.023 112.009 126.386V126.841C113.781 126.917 115.44 127.417 116.986 128.341C118.546 129.265 119.812 130.561 120.781 132.227C121.751 133.879 122.236 135.848 122.236 138.136C122.236 140.606 121.622 142.811 120.395 144.75C119.183 146.674 117.387 148.197 115.009 149.318C112.63 150.439 109.698 151 106.213 151H86.3267ZM96.1676 142.955H104.19C106.933 142.955 108.933 142.432 110.19 141.386C111.448 140.326 112.077 138.917 112.077 137.159C112.077 135.871 111.766 134.735 111.145 133.75C110.524 132.765 109.637 131.992 108.486 131.432C107.349 130.871 105.993 130.591 104.418 130.591H96.1676V142.955ZM96.1676 123.932H103.463C104.812 123.932 106.009 123.697 107.054 123.227C108.115 122.742 108.948 122.061 109.554 121.182C110.175 120.303 110.486 119.25 110.486 118.023C110.486 116.341 109.887 114.985 108.69 113.955C107.509 112.924 105.827 112.409 103.645 112.409H96.1676V123.932Z" fill="white"/>
</svg>
